<mxfile host="app.diagrams.net" modified="2024-01-08T08:51:20.569Z" agent="Mozilla/5.0 (X11; Ubuntu; Linux x86_64; rv:109.0) Gecko/20100101 Firefox/119.0" etag="kOIvpvfV96H8t6Dr56UQ" version="22.1.17" type="github">
  <diagram name="Page-1" id="Qz9lvQuuYSKgR6KqhHCB">
    <mxGraphModel dx="1504" dy="837" grid="1" gridSize="10" guides="1" tooltips="1" connect="1" arrows="1" fold="1" page="1" pageScale="1" pageWidth="850" pageHeight="1100" math="0" shadow="0">
      <root>
        <mxCell id="0" />
        <mxCell id="1" parent="0" />
        <mxCell id="L2tWmQwmKj26mh4VTE-m-6" style="edgeStyle=orthogonalEdgeStyle;rounded=0;orthogonalLoop=1;jettySize=auto;html=1;entryX=0.5;entryY=0;entryDx=0;entryDy=0;" parent="1" source="L2tWmQwmKj26mh4VTE-m-1" target="L2tWmQwmKj26mh4VTE-m-2" edge="1">
          <mxGeometry relative="1" as="geometry" />
        </mxCell>
        <mxCell id="L2tWmQwmKj26mh4VTE-m-1" value="&lt;font style=&quot;font-size: 20px;&quot;&gt;&lt;b&gt;&lt;font style=&quot;font-size: 20px;&quot;&gt;variant&lt;/font&gt;&lt;/b&gt;&lt;/font&gt;" style="ellipse;whiteSpace=wrap;html=1;fillColor=#f8cecc;strokeColor=#b85450;" parent="1" vertex="1">
          <mxGeometry x="40" y="150" width="120" height="50" as="geometry" />
        </mxCell>
        <mxCell id="L2tWmQwmKj26mh4VTE-m-11" style="edgeStyle=orthogonalEdgeStyle;rounded=0;orthogonalLoop=1;jettySize=auto;html=1;entryX=0;entryY=0.5;entryDx=0;entryDy=0;" parent="1" source="L2tWmQwmKj26mh4VTE-m-2" target="L2tWmQwmKj26mh4VTE-m-10" edge="1">
          <mxGeometry relative="1" as="geometry" />
        </mxCell>
        <mxCell id="L2tWmQwmKj26mh4VTE-m-16" style="edgeStyle=orthogonalEdgeStyle;rounded=0;orthogonalLoop=1;jettySize=auto;html=1;entryX=0.5;entryY=0;entryDx=0;entryDy=0;" parent="1" source="L2tWmQwmKj26mh4VTE-m-2" target="L2tWmQwmKj26mh4VTE-m-3" edge="1">
          <mxGeometry relative="1" as="geometry" />
        </mxCell>
        <mxCell id="L2tWmQwmKj26mh4VTE-m-2" value="Quality filter passed?" style="rhombus;whiteSpace=wrap;html=1;fillColor=#e1d5e7;strokeColor=#9673a6;fontSize=14;" parent="1" vertex="1">
          <mxGeometry x="50" y="230" width="100" height="90" as="geometry" />
        </mxCell>
        <mxCell id="L2tWmQwmKj26mh4VTE-m-14" value="" style="edgeStyle=orthogonalEdgeStyle;rounded=0;orthogonalLoop=1;jettySize=auto;html=1;" parent="1" source="L2tWmQwmKj26mh4VTE-m-3" target="L2tWmQwmKj26mh4VTE-m-13" edge="1">
          <mxGeometry relative="1" as="geometry" />
        </mxCell>
        <mxCell id="L2tWmQwmKj26mh4VTE-m-19" style="edgeStyle=orthogonalEdgeStyle;rounded=0;orthogonalLoop=1;jettySize=auto;html=1;entryX=0.5;entryY=0;entryDx=0;entryDy=0;" parent="1" source="L2tWmQwmKj26mh4VTE-m-3" target="L2tWmQwmKj26mh4VTE-m-4" edge="1">
          <mxGeometry relative="1" as="geometry" />
        </mxCell>
        <mxCell id="L2tWmQwmKj26mh4VTE-m-3" value="inROI" style="rhombus;whiteSpace=wrap;html=1;fillColor=#e1d5e7;strokeColor=#9673a6;fontSize=14;" parent="1" vertex="1">
          <mxGeometry x="50" y="340" width="100" height="90" as="geometry" />
        </mxCell>
        <mxCell id="L2tWmQwmKj26mh4VTE-m-22" style="edgeStyle=orthogonalEdgeStyle;rounded=0;orthogonalLoop=1;jettySize=auto;html=1;entryX=0.5;entryY=0;entryDx=0;entryDy=0;" parent="1" source="L2tWmQwmKj26mh4VTE-m-4" target="L2tWmQwmKj26mh4VTE-m-21" edge="1">
          <mxGeometry relative="1" as="geometry" />
        </mxCell>
        <mxCell id="L2tWmQwmKj26mh4VTE-m-30" style="edgeStyle=orthogonalEdgeStyle;rounded=0;orthogonalLoop=1;jettySize=auto;html=1;" parent="1" source="L2tWmQwmKj26mh4VTE-m-4" target="L2tWmQwmKj26mh4VTE-m-23" edge="1">
          <mxGeometry relative="1" as="geometry" />
        </mxCell>
        <mxCell id="L2tWmQwmKj26mh4VTE-m-4" value="PSV?" style="rhombus;whiteSpace=wrap;html=1;fillColor=#e1d5e7;strokeColor=#9673a6;fontSize=14;" parent="1" vertex="1">
          <mxGeometry x="50" y="460" width="100" height="100" as="geometry" />
        </mxCell>
        <mxCell id="L2tWmQwmKj26mh4VTE-m-5" value="&lt;font size=&quot;1&quot;&gt;&lt;b&gt;&lt;font style=&quot;font-size: 20px;&quot;&gt;Do not report&lt;/font&gt;&lt;/b&gt;&lt;/font&gt;" style="ellipse;whiteSpace=wrap;html=1;fillColor=#f8cecc;strokeColor=#b85450;gradientColor=none;fontSize=16;" parent="1" vertex="1">
          <mxGeometry x="990" y="250" width="120" height="50" as="geometry" />
        </mxCell>
        <mxCell id="L2tWmQwmKj26mh4VTE-m-8" value="No" style="text;html=1;align=center;verticalAlign=middle;resizable=0;points=[];autosize=1;strokeColor=none;fillColor=none;" parent="1" vertex="1">
          <mxGeometry x="180" y="245" width="40" height="30" as="geometry" />
        </mxCell>
        <mxCell id="QqOgwovUE7Cm6XVnJNRR-2" style="edgeStyle=orthogonalEdgeStyle;rounded=0;orthogonalLoop=1;jettySize=auto;html=1;" edge="1" parent="1" source="L2tWmQwmKj26mh4VTE-m-10" target="L2tWmQwmKj26mh4VTE-m-5">
          <mxGeometry relative="1" as="geometry" />
        </mxCell>
        <mxCell id="L2tWmQwmKj26mh4VTE-m-10" value="Quality filter not passed" style="rounded=0;whiteSpace=wrap;html=1;fillColor=#A680B8;fontSize=15;fontColor=#ffffff;" parent="1" vertex="1">
          <mxGeometry x="470" y="260" width="230" height="30" as="geometry" />
        </mxCell>
        <mxCell id="L2tWmQwmKj26mh4VTE-m-15" style="edgeStyle=orthogonalEdgeStyle;rounded=0;orthogonalLoop=1;jettySize=auto;html=1;entryX=0;entryY=1;entryDx=0;entryDy=0;" parent="1" source="L2tWmQwmKj26mh4VTE-m-13" target="L2tWmQwmKj26mh4VTE-m-5" edge="1">
          <mxGeometry relative="1" as="geometry" />
        </mxCell>
        <mxCell id="L2tWmQwmKj26mh4VTE-m-13" value="Out of ROI" style="whiteSpace=wrap;html=1;fillColor=#A680B8;fontSize=15;fontColor=#ffffff;" parent="1" vertex="1">
          <mxGeometry x="470" y="370" width="130" height="30" as="geometry" />
        </mxCell>
        <mxCell id="L2tWmQwmKj26mh4VTE-m-17" value="Yes" style="text;html=1;align=center;verticalAlign=middle;resizable=0;points=[];autosize=1;strokeColor=none;fillColor=none;" parent="1" vertex="1">
          <mxGeometry x="100" y="310" width="40" height="30" as="geometry" />
        </mxCell>
        <mxCell id="L2tWmQwmKj26mh4VTE-m-18" value="No" style="text;html=1;align=center;verticalAlign=middle;resizable=0;points=[];autosize=1;strokeColor=none;fillColor=none;" parent="1" vertex="1">
          <mxGeometry x="180" y="354" width="40" height="30" as="geometry" />
        </mxCell>
        <mxCell id="L2tWmQwmKj26mh4VTE-m-20" value="Yes" style="text;html=1;align=center;verticalAlign=middle;resizable=0;points=[];autosize=1;strokeColor=none;fillColor=none;" parent="1" vertex="1">
          <mxGeometry x="100" y="430" width="40" height="30" as="geometry" />
        </mxCell>
        <mxCell id="L2tWmQwmKj26mh4VTE-m-27" value="" style="edgeStyle=orthogonalEdgeStyle;rounded=0;orthogonalLoop=1;jettySize=auto;html=1;" parent="1" source="L2tWmQwmKj26mh4VTE-m-21" target="L2tWmQwmKj26mh4VTE-m-26" edge="1">
          <mxGeometry relative="1" as="geometry">
            <Array as="points">
              <mxPoint x="100" y="910" />
              <mxPoint x="670" y="910" />
            </Array>
          </mxGeometry>
        </mxCell>
        <mxCell id="L2tWmQwmKj26mh4VTE-m-31" style="edgeStyle=orthogonalEdgeStyle;rounded=0;orthogonalLoop=1;jettySize=auto;html=1;" parent="1" source="L2tWmQwmKj26mh4VTE-m-21" target="L2tWmQwmKj26mh4VTE-m-23" edge="1">
          <mxGeometry relative="1" as="geometry" />
        </mxCell>
        <mxCell id="L2tWmQwmKj26mh4VTE-m-21" value="VAF â‰¥60%?" style="rhombus;whiteSpace=wrap;html=1;fillColor=#e1d5e7;strokeColor=#9673a6;fontSize=14;" parent="1" vertex="1">
          <mxGeometry x="50" y="580" width="100" height="100" as="geometry" />
        </mxCell>
        <mxCell id="L2tWmQwmKj26mh4VTE-m-43" style="edgeStyle=orthogonalEdgeStyle;rounded=0;orthogonalLoop=1;jettySize=auto;html=1;entryX=0;entryY=0.5;entryDx=0;entryDy=0;" parent="1" source="L2tWmQwmKj26mh4VTE-m-23" target="L2tWmQwmKj26mh4VTE-m-35" edge="1">
          <mxGeometry relative="1" as="geometry">
            <Array as="points">
              <mxPoint x="290" y="478" />
            </Array>
          </mxGeometry>
        </mxCell>
        <mxCell id="L2tWmQwmKj26mh4VTE-m-45" value="" style="edgeStyle=orthogonalEdgeStyle;rounded=0;orthogonalLoop=1;jettySize=auto;html=1;" parent="1" source="L2tWmQwmKj26mh4VTE-m-23" target="L2tWmQwmKj26mh4VTE-m-44" edge="1">
          <mxGeometry relative="1" as="geometry" />
        </mxCell>
        <mxCell id="L2tWmQwmKj26mh4VTE-m-23" value="Classified?" style="rhombus;whiteSpace=wrap;html=1;fillColor=#e1d5e7;strokeColor=#9673a6;fontSize=13;" parent="1" vertex="1">
          <mxGeometry x="200" y="510" width="100" height="100" as="geometry" />
        </mxCell>
        <mxCell id="L2tWmQwmKj26mh4VTE-m-95" style="edgeStyle=orthogonalEdgeStyle;rounded=0;orthogonalLoop=1;jettySize=auto;html=1;entryX=1;entryY=0.5;entryDx=0;entryDy=0;" parent="1" source="L2tWmQwmKj26mh4VTE-m-26" target="L2tWmQwmKj26mh4VTE-m-5" edge="1">
          <mxGeometry relative="1" as="geometry" />
        </mxCell>
        <mxCell id="L2tWmQwmKj26mh4VTE-m-26" value="&lt;font style=&quot;font-size: 15px;&quot;&gt;Do not classify PSV &amp;lt;60%&lt;/font&gt;" style="whiteSpace=wrap;html=1;fillColor=#A680B8;fontSize=13;fontColor=#ffffff;" parent="1" vertex="1">
          <mxGeometry x="600" y="894" width="300" height="30" as="geometry" />
        </mxCell>
        <mxCell id="L2tWmQwmKj26mh4VTE-m-32" value="No" style="text;html=1;align=center;verticalAlign=middle;resizable=0;points=[];autosize=1;strokeColor=none;fillColor=none;" parent="1" vertex="1">
          <mxGeometry x="142" y="474" width="40" height="30" as="geometry" />
        </mxCell>
        <mxCell id="L2tWmQwmKj26mh4VTE-m-33" value="Yes" style="text;html=1;align=center;verticalAlign=middle;resizable=0;points=[];autosize=1;strokeColor=none;fillColor=none;" parent="1" vertex="1">
          <mxGeometry x="139" y="605" width="40" height="30" as="geometry" />
        </mxCell>
        <mxCell id="L2tWmQwmKj26mh4VTE-m-48" style="edgeStyle=orthogonalEdgeStyle;rounded=0;orthogonalLoop=1;jettySize=auto;html=1;entryX=0.5;entryY=0;entryDx=0;entryDy=0;" parent="1" source="L2tWmQwmKj26mh4VTE-m-35" target="L2tWmQwmKj26mh4VTE-m-44" edge="1">
          <mxGeometry relative="1" as="geometry">
            <Array as="points">
              <mxPoint x="425" y="480" />
            </Array>
          </mxGeometry>
        </mxCell>
        <mxCell id="L2tWmQwmKj26mh4VTE-m-35" value="Classify " style="rounded=1;whiteSpace=wrap;html=1;fillColor=#A680B8;fontSize=15;fontColor=#ffffff;" parent="1" vertex="1">
          <mxGeometry x="318" y="464" width="80" height="30" as="geometry" />
        </mxCell>
        <mxCell id="L2tWmQwmKj26mh4VTE-m-47" value="" style="edgeStyle=orthogonalEdgeStyle;rounded=0;orthogonalLoop=1;jettySize=auto;html=1;" parent="1" source="L2tWmQwmKj26mh4VTE-m-44" target="L2tWmQwmKj26mh4VTE-m-46" edge="1">
          <mxGeometry relative="1" as="geometry" />
        </mxCell>
        <mxCell id="L2tWmQwmKj26mh4VTE-m-63" style="edgeStyle=orthogonalEdgeStyle;rounded=0;orthogonalLoop=1;jettySize=auto;html=1;entryX=0;entryY=0.5;entryDx=0;entryDy=0;" parent="1" source="L2tWmQwmKj26mh4VTE-m-44" target="L2tWmQwmKj26mh4VTE-m-62" edge="1">
          <mxGeometry relative="1" as="geometry">
            <Array as="points">
              <mxPoint x="425" y="688" />
            </Array>
          </mxGeometry>
        </mxCell>
        <mxCell id="L2tWmQwmKj26mh4VTE-m-44" value="PAT or LPAT?" style="rhombus;whiteSpace=wrap;html=1;fillColor=#e1d5e7;strokeColor=#9673a6;fontSize=13;" parent="1" vertex="1">
          <mxGeometry x="375" y="510" width="100" height="100" as="geometry" />
        </mxCell>
        <mxCell id="L2tWmQwmKj26mh4VTE-m-51" style="edgeStyle=orthogonalEdgeStyle;rounded=0;orthogonalLoop=1;jettySize=auto;html=1;entryX=0;entryY=0.5;entryDx=0;entryDy=0;" parent="1" source="L2tWmQwmKj26mh4VTE-m-46" target="L2tWmQwmKj26mh4VTE-m-49" edge="1">
          <mxGeometry relative="1" as="geometry" />
        </mxCell>
        <mxCell id="L2tWmQwmKj26mh4VTE-m-55" style="edgeStyle=orthogonalEdgeStyle;rounded=0;orthogonalLoop=1;jettySize=auto;html=1;exitX=0.5;exitY=0;exitDx=0;exitDy=0;entryX=0;entryY=0.5;entryDx=0;entryDy=0;" parent="1" source="L2tWmQwmKj26mh4VTE-m-46" target="L2tWmQwmKj26mh4VTE-m-54" edge="1">
          <mxGeometry relative="1" as="geometry" />
        </mxCell>
        <mxCell id="L2tWmQwmKj26mh4VTE-m-46" value="&lt;font style=&quot;font-size: 12.5px;&quot;&gt;Discarded by E11 approach or recurrent &lt;i style=&quot;font-size: 12.5px;&quot;&gt;PMS2CL&lt;/i&gt; variant?&lt;/font&gt;" style="rhombus;whiteSpace=wrap;html=1;fillColor=#e1d5e7;strokeColor=#9673a6;fontSize=12.5;" parent="1" vertex="1">
          <mxGeometry x="560" y="510" width="105" height="100" as="geometry" />
        </mxCell>
        <mxCell id="L2tWmQwmKj26mh4VTE-m-86" value="" style="edgeStyle=orthogonalEdgeStyle;rounded=0;orthogonalLoop=1;jettySize=auto;html=1;" parent="1" source="L2tWmQwmKj26mh4VTE-m-49" target="L2tWmQwmKj26mh4VTE-m-85" edge="1">
          <mxGeometry relative="1" as="geometry" />
        </mxCell>
        <mxCell id="L2tWmQwmKj26mh4VTE-m-49" value="LR-PCR" style="rounded=1;whiteSpace=wrap;html=1;fillColor=#ffe6cc;strokeColor=#d79b00;fontSize=13;" parent="1" vertex="1">
          <mxGeometry x="720" y="550" width="80" height="20" as="geometry" />
        </mxCell>
        <mxCell id="L2tWmQwmKj26mh4VTE-m-50" value="Yes" style="text;html=1;align=center;verticalAlign=middle;resizable=0;points=[];autosize=1;strokeColor=none;fillColor=none;" parent="1" vertex="1">
          <mxGeometry x="520" y="535" width="40" height="30" as="geometry" />
        </mxCell>
        <mxCell id="L2tWmQwmKj26mh4VTE-m-52" value="No" style="text;html=1;align=center;verticalAlign=middle;resizable=0;points=[];autosize=1;strokeColor=none;fillColor=none;" parent="1" vertex="1">
          <mxGeometry x="670" y="535" width="40" height="30" as="geometry" />
        </mxCell>
        <mxCell id="L2tWmQwmKj26mh4VTE-m-57" style="edgeStyle=orthogonalEdgeStyle;rounded=0;orthogonalLoop=1;jettySize=auto;html=1;entryX=0.375;entryY=0.05;entryDx=0;entryDy=0;entryPerimeter=0;" parent="1" source="L2tWmQwmKj26mh4VTE-m-54" target="L2tWmQwmKj26mh4VTE-m-49" edge="1">
          <mxGeometry relative="1" as="geometry" />
        </mxCell>
        <mxCell id="L2tWmQwmKj26mh4VTE-m-68" value="" style="edgeStyle=orthogonalEdgeStyle;rounded=0;orthogonalLoop=1;jettySize=auto;html=1;" parent="1" source="L2tWmQwmKj26mh4VTE-m-54" target="L2tWmQwmKj26mh4VTE-m-67" edge="1">
          <mxGeometry relative="1" as="geometry" />
        </mxCell>
        <mxCell id="L2tWmQwmKj26mh4VTE-m-54" value="PMS2 IHC altered?" style="rhombus;whiteSpace=wrap;html=1;fillColor=#e1d5e7;strokeColor=#9673a6;fontSize=13;" parent="1" vertex="1">
          <mxGeometry x="710" y="430" width="80" height="80" as="geometry" />
        </mxCell>
        <mxCell id="L2tWmQwmKj26mh4VTE-m-56" value="Yes" style="text;html=1;align=center;verticalAlign=middle;resizable=0;points=[];autosize=1;strokeColor=none;fillColor=none;" parent="1" vertex="1">
          <mxGeometry x="640" y="438" width="40" height="30" as="geometry" />
        </mxCell>
        <mxCell id="L2tWmQwmKj26mh4VTE-m-58" value="Yes / Unknown" style="text;html=1;align=center;verticalAlign=middle;resizable=0;points=[];autosize=1;strokeColor=none;fillColor=none;" parent="1" vertex="1">
          <mxGeometry x="750" y="510" width="100" height="30" as="geometry" />
        </mxCell>
        <mxCell id="L2tWmQwmKj26mh4VTE-m-60" value="No" style="text;html=1;align=center;verticalAlign=middle;resizable=0;points=[];autosize=1;strokeColor=none;fillColor=none;" parent="1" vertex="1">
          <mxGeometry x="790" y="438" width="40" height="30" as="geometry" />
        </mxCell>
        <mxCell id="L2tWmQwmKj26mh4VTE-m-71" style="edgeStyle=orthogonalEdgeStyle;rounded=0;orthogonalLoop=1;jettySize=auto;html=1;" parent="1" source="L2tWmQwmKj26mh4VTE-m-62" target="L2tWmQwmKj26mh4VTE-m-70" edge="1">
          <mxGeometry relative="1" as="geometry" />
        </mxCell>
        <mxCell id="L2tWmQwmKj26mh4VTE-m-75" value="" style="edgeStyle=orthogonalEdgeStyle;rounded=0;orthogonalLoop=1;jettySize=auto;html=1;" parent="1" source="L2tWmQwmKj26mh4VTE-m-62" target="L2tWmQwmKj26mh4VTE-m-74" edge="1">
          <mxGeometry relative="1" as="geometry">
            <Array as="points">
              <mxPoint x="520" y="850" />
            </Array>
          </mxGeometry>
        </mxCell>
        <mxCell id="L2tWmQwmKj26mh4VTE-m-62" value="VUS?" style="rhombus;whiteSpace=wrap;html=1;fillColor=#e1d5e7;strokeColor=#9673a6;fontSize=13;" parent="1" vertex="1">
          <mxGeometry x="440" y="636" width="100" height="104" as="geometry" />
        </mxCell>
        <mxCell id="L2tWmQwmKj26mh4VTE-m-64" value="No" style="text;html=1;align=center;verticalAlign=middle;resizable=0;points=[];autosize=1;strokeColor=none;fillColor=none;" parent="1" vertex="1">
          <mxGeometry x="420" y="618" width="40" height="30" as="geometry" />
        </mxCell>
        <mxCell id="L2tWmQwmKj26mh4VTE-m-98" style="edgeStyle=orthogonalEdgeStyle;rounded=0;orthogonalLoop=1;jettySize=auto;html=1;" parent="1" source="L2tWmQwmKj26mh4VTE-m-67" edge="1">
          <mxGeometry relative="1" as="geometry">
            <mxPoint x="1030" y="300" as="targetPoint" />
          </mxGeometry>
        </mxCell>
        <mxCell id="L2tWmQwmKj26mh4VTE-m-67" value="&lt;div&gt;Do not perform&amp;nbsp;&lt;/div&gt;&lt;div&gt;LR-PCR&lt;/div&gt;" style="whiteSpace=wrap;html=1;fillColor=#A680B8;fontSize=15;fontColor=#ffffff;" parent="1" vertex="1">
          <mxGeometry x="870" y="451" width="140" height="38" as="geometry" />
        </mxCell>
        <mxCell id="L2tWmQwmKj26mh4VTE-m-97" style="edgeStyle=orthogonalEdgeStyle;rounded=0;orthogonalLoop=1;jettySize=auto;html=1;entryX=0;entryY=0.5;entryDx=0;entryDy=0;" parent="1" source="L2tWmQwmKj26mh4VTE-m-70" target="L2tWmQwmKj26mh4VTE-m-81" edge="1">
          <mxGeometry relative="1" as="geometry">
            <Array as="points">
              <mxPoint x="630" y="760" />
            </Array>
          </mxGeometry>
        </mxCell>
        <mxCell id="L2tWmQwmKj26mh4VTE-m-100" style="edgeStyle=orthogonalEdgeStyle;rounded=0;orthogonalLoop=1;jettySize=auto;html=1;" parent="1" source="L2tWmQwmKj26mh4VTE-m-70" edge="1">
          <mxGeometry relative="1" as="geometry">
            <mxPoint x="850" y="688" as="targetPoint" />
          </mxGeometry>
        </mxCell>
        <mxCell id="L2tWmQwmKj26mh4VTE-m-70" value="Discarded by E11 approach?" style="rhombus;whiteSpace=wrap;html=1;fillColor=#e1d5e7;strokeColor=#9673a6;fontSize=13;" parent="1" vertex="1">
          <mxGeometry x="600" y="637" width="105" height="102" as="geometry" />
        </mxCell>
        <mxCell id="L2tWmQwmKj26mh4VTE-m-72" value="Yes" style="text;html=1;align=center;verticalAlign=middle;resizable=0;points=[];autosize=1;strokeColor=none;fillColor=none;" parent="1" vertex="1">
          <mxGeometry x="530" y="658" width="40" height="30" as="geometry" />
        </mxCell>
        <mxCell id="L2tWmQwmKj26mh4VTE-m-99" style="edgeStyle=orthogonalEdgeStyle;rounded=0;orthogonalLoop=1;jettySize=auto;html=1;entryX=0.958;entryY=0.88;entryDx=0;entryDy=0;entryPerimeter=0;" parent="1" source="L2tWmQwmKj26mh4VTE-m-74" target="L2tWmQwmKj26mh4VTE-m-5" edge="1">
          <mxGeometry relative="1" as="geometry" />
        </mxCell>
        <mxCell id="L2tWmQwmKj26mh4VTE-m-74" value="Do not report BEN/LBEN variant" style="whiteSpace=wrap;html=1;fillColor=#A680B8;fontSize=15;fontColor=#ffffff;" parent="1" vertex="1">
          <mxGeometry x="650" y="827" width="200" height="39" as="geometry" />
        </mxCell>
        <mxCell id="L2tWmQwmKj26mh4VTE-m-80" value="Yes" style="text;html=1;align=center;verticalAlign=middle;resizable=0;points=[];autosize=1;strokeColor=none;fillColor=none;" parent="1" vertex="1">
          <mxGeometry x="670" y="740" width="40" height="30" as="geometry" />
        </mxCell>
        <mxCell id="L2tWmQwmKj26mh4VTE-m-83" style="edgeStyle=orthogonalEdgeStyle;rounded=0;orthogonalLoop=1;jettySize=auto;html=1;" parent="1" source="L2tWmQwmKj26mh4VTE-m-81" edge="1">
          <mxGeometry relative="1" as="geometry">
            <mxPoint x="1080" y="300" as="targetPoint" />
          </mxGeometry>
        </mxCell>
        <mxCell id="L2tWmQwmKj26mh4VTE-m-81" value="&lt;font style=&quot;font-size: 15px;&quot;&gt;Do not report VUS&lt;/font&gt;" style="whiteSpace=wrap;html=1;fillColor=#A680B8;fontSize=13;fontColor=#ffffff;" parent="1" vertex="1">
          <mxGeometry x="878" y="743" width="120" height="35" as="geometry" />
        </mxCell>
        <mxCell id="L2tWmQwmKj26mh4VTE-m-87" style="edgeStyle=orthogonalEdgeStyle;rounded=0;orthogonalLoop=1;jettySize=auto;html=1;" parent="1" source="L2tWmQwmKj26mh4VTE-m-85" edge="1">
          <mxGeometry relative="1" as="geometry">
            <mxPoint x="1060" y="300" as="targetPoint" />
          </mxGeometry>
        </mxCell>
        <mxCell id="L2tWmQwmKj26mh4VTE-m-93" style="edgeStyle=orthogonalEdgeStyle;rounded=0;orthogonalLoop=1;jettySize=auto;html=1;" parent="1" source="L2tWmQwmKj26mh4VTE-m-85" edge="1">
          <mxGeometry relative="1" as="geometry">
            <mxPoint x="920" y="640" as="targetPoint" />
          </mxGeometry>
        </mxCell>
        <mxCell id="L2tWmQwmKj26mh4VTE-m-85" value="Variant Confirmed in &lt;i style=&quot;font-size: 13px;&quot;&gt;PMS2&lt;/i&gt;?" style="rhombus;whiteSpace=wrap;html=1;rounded=1;fillColor=#d0cee2;strokeColor=#56517e;fontSize=13;" parent="1" vertex="1">
          <mxGeometry x="880" y="520" width="80" height="80" as="geometry" />
        </mxCell>
        <mxCell id="L2tWmQwmKj26mh4VTE-m-88" value="No" style="text;html=1;align=center;verticalAlign=middle;resizable=0;points=[];autosize=1;strokeColor=none;fillColor=none;" parent="1" vertex="1">
          <mxGeometry x="960" y="538" width="40" height="30" as="geometry" />
        </mxCell>
        <mxCell id="L2tWmQwmKj26mh4VTE-m-90" value="&lt;b&gt;&lt;font style=&quot;font-size: 20px;&quot;&gt;Report&lt;/font&gt;&lt;/b&gt;" style="ellipse;whiteSpace=wrap;html=1;fillColor=#f8cecc;strokeColor=#b85450;" parent="1" vertex="1">
          <mxGeometry x="860" y="658" width="120" height="50" as="geometry" />
        </mxCell>
        <mxCell id="L2tWmQwmKj26mh4VTE-m-92" value="No" style="text;html=1;align=center;verticalAlign=middle;resizable=0;points=[];autosize=1;strokeColor=none;fillColor=none;" parent="1" vertex="1">
          <mxGeometry x="720" y="658" width="40" height="30" as="geometry" />
        </mxCell>
        <mxCell id="L2tWmQwmKj26mh4VTE-m-94" value="yes" style="text;html=1;align=center;verticalAlign=middle;resizable=0;points=[];autosize=1;strokeColor=none;fillColor=none;" parent="1" vertex="1">
          <mxGeometry x="920" y="605" width="40" height="30" as="geometry" />
        </mxCell>
        <mxCell id="L2tWmQwmKj26mh4VTE-m-96" value="No" style="text;html=1;align=center;verticalAlign=middle;resizable=0;points=[];autosize=1;strokeColor=none;fillColor=none;" parent="1" vertex="1">
          <mxGeometry x="520" y="810" width="40" height="30" as="geometry" />
        </mxCell>
        <mxCell id="SR0BKIwaYJ7FU_kiTIJc-1" value="Yes" style="text;html=1;align=center;verticalAlign=middle;resizable=0;points=[];autosize=1;strokeColor=none;fillColor=none;" parent="1" vertex="1">
          <mxGeometry x="100" y="548" width="40" height="30" as="geometry" />
        </mxCell>
        <mxCell id="VvM0HyJ-iAyLZYTbCm-p-1" value="No" style="text;html=1;align=center;verticalAlign=middle;resizable=0;points=[];autosize=1;strokeColor=none;fillColor=none;" parent="1" vertex="1">
          <mxGeometry x="250" y="480" width="40" height="30" as="geometry" />
        </mxCell>
        <mxCell id="VvM0HyJ-iAyLZYTbCm-p-2" value="Yes" style="text;html=1;align=center;verticalAlign=middle;resizable=0;points=[];autosize=1;strokeColor=none;fillColor=none;" parent="1" vertex="1">
          <mxGeometry x="300" y="538" width="40" height="30" as="geometry" />
        </mxCell>
      </root>
    </mxGraphModel>
  </diagram>
</mxfile>
